<mxfile host="app.diagrams.net" modified="2024-06-04T18:23:03.771Z" agent="Mozilla/5.0 (Windows NT 10.0; Win64; x64) AppleWebKit/537.36 (KHTML, like Gecko) Chrome/122.0.0.0 YaBrowser/24.4.0.0 Safari/537.36" etag="ljflyL3GrAoHJYM0PGoJ" version="24.4.13" type="device">
  <diagram name="Страница — 1" id="MnjJHCmK_m16na0_ht7d">
    <mxGraphModel dx="1173" dy="671" grid="1" gridSize="10" guides="1" tooltips="1" connect="1" arrows="1" fold="1" page="1" pageScale="1" pageWidth="827" pageHeight="1169" math="0" shadow="0">
      <root>
        <mxCell id="0" />
        <mxCell id="1" parent="0" />
        <mxCell id="hcBMqLpVQxvQc22_RVxL-1" value="" style="rounded=0;whiteSpace=wrap;html=1;" parent="1" vertex="1">
          <mxGeometry x="40" width="760" height="680" as="geometry" />
        </mxCell>
        <mxCell id="hcBMqLpVQxvQc22_RVxL-5" value="" style="rounded=0;whiteSpace=wrap;html=1;" parent="1" vertex="1">
          <mxGeometry x="160" width="520" height="680" as="geometry" />
        </mxCell>
        <mxCell id="hcBMqLpVQxvQc22_RVxL-6" value="Client" style="shape=umlActor;verticalLabelPosition=bottom;verticalAlign=top;html=1;outlineConnect=0;" parent="1" vertex="1">
          <mxGeometry x="90" y="70" width="30" height="60" as="geometry" />
        </mxCell>
        <mxCell id="hcBMqLpVQxvQc22_RVxL-7" value="Deliveryman" style="shape=umlActor;verticalLabelPosition=bottom;verticalAlign=top;html=1;outlineConnect=0;" parent="1" vertex="1">
          <mxGeometry x="90" y="525" width="30" height="60" as="geometry" />
        </mxCell>
        <mxCell id="hcBMqLpVQxvQc22_RVxL-10" value="Food Company" style="shape=umlActor;verticalLabelPosition=bottom;verticalAlign=top;html=1;outlineConnect=0;" parent="1" vertex="1">
          <mxGeometry x="730" y="310" width="30" height="60" as="geometry" />
        </mxCell>
        <mxCell id="hcBMqLpVQxvQc22_RVxL-11" value="App" style="shape=umlActor;verticalLabelPosition=bottom;verticalAlign=top;html=1;outlineConnect=0;" parent="1" vertex="1">
          <mxGeometry x="90" y="310" width="30" height="60" as="geometry" />
        </mxCell>
        <mxCell id="hcBMqLpVQxvQc22_RVxL-12" value="Order Food" style="ellipse;whiteSpace=wrap;html=1;" parent="1" vertex="1">
          <mxGeometry x="260" y="60" width="120" height="80" as="geometry" />
        </mxCell>
        <mxCell id="hcBMqLpVQxvQc22_RVxL-13" value="" style="endArrow=none;html=1;rounded=0;entryX=0.5;entryY=0.5;entryDx=0;entryDy=0;entryPerimeter=0;" parent="1" source="hcBMqLpVQxvQc22_RVxL-12" target="hcBMqLpVQxvQc22_RVxL-6" edge="1">
          <mxGeometry width="50" height="50" relative="1" as="geometry">
            <mxPoint x="420" y="370" as="sourcePoint" />
            <mxPoint x="470" y="320" as="targetPoint" />
          </mxGeometry>
        </mxCell>
        <mxCell id="hcBMqLpVQxvQc22_RVxL-14" value="Make an order" style="edgeLabel;html=1;align=center;verticalAlign=middle;resizable=0;points=[];" parent="hcBMqLpVQxvQc22_RVxL-13" vertex="1" connectable="0">
          <mxGeometry x="-0.4148" y="-1" relative="1" as="geometry">
            <mxPoint x="-5" y="1" as="offset" />
          </mxGeometry>
        </mxCell>
        <mxCell id="hcBMqLpVQxvQc22_RVxL-15" value="" style="endArrow=none;html=1;rounded=0;entryX=0.5;entryY=0.5;entryDx=0;entryDy=0;entryPerimeter=0;exitX=0;exitY=0.5;exitDx=0;exitDy=0;" parent="1" source="hcBMqLpVQxvQc22_RVxL-12" target="hcBMqLpVQxvQc22_RVxL-11" edge="1">
          <mxGeometry width="50" height="50" relative="1" as="geometry">
            <mxPoint x="420" y="370" as="sourcePoint" />
            <mxPoint x="470" y="320" as="targetPoint" />
          </mxGeometry>
        </mxCell>
        <mxCell id="hcBMqLpVQxvQc22_RVxL-16" value="Take an order" style="edgeLabel;html=1;align=center;verticalAlign=middle;resizable=0;points=[];" parent="hcBMqLpVQxvQc22_RVxL-15" vertex="1" connectable="0">
          <mxGeometry x="-0.4385" y="-1" relative="1" as="geometry">
            <mxPoint as="offset" />
          </mxGeometry>
        </mxCell>
        <mxCell id="hcBMqLpVQxvQc22_RVxL-17" value="" style="endArrow=none;html=1;rounded=0;entryX=1;entryY=0.5;entryDx=0;entryDy=0;" parent="1" source="hcBMqLpVQxvQc22_RVxL-10" target="hcBMqLpVQxvQc22_RVxL-12" edge="1">
          <mxGeometry width="50" height="50" relative="1" as="geometry">
            <mxPoint x="420" y="370" as="sourcePoint" />
            <mxPoint x="470" y="320" as="targetPoint" />
          </mxGeometry>
        </mxCell>
        <mxCell id="hcBMqLpVQxvQc22_RVxL-18" value="Receive an order" style="edgeLabel;html=1;align=center;verticalAlign=middle;resizable=0;points=[];" parent="hcBMqLpVQxvQc22_RVxL-17" vertex="1" connectable="0">
          <mxGeometry x="0.09" y="1" relative="1" as="geometry">
            <mxPoint as="offset" />
          </mxGeometry>
        </mxCell>
        <mxCell id="hcBMqLpVQxvQc22_RVxL-19" value="Use Storage" style="ellipse;whiteSpace=wrap;html=1;" parent="1" vertex="1">
          <mxGeometry x="480" y="300" width="120" height="80" as="geometry" />
        </mxCell>
        <mxCell id="hcBMqLpVQxvQc22_RVxL-20" value="" style="endArrow=none;html=1;rounded=0;exitX=1;exitY=0.5;exitDx=0;exitDy=0;" parent="1" source="hcBMqLpVQxvQc22_RVxL-19" target="hcBMqLpVQxvQc22_RVxL-10" edge="1">
          <mxGeometry width="50" height="50" relative="1" as="geometry">
            <mxPoint x="420" y="370" as="sourcePoint" />
            <mxPoint x="470" y="320" as="targetPoint" />
          </mxGeometry>
        </mxCell>
        <mxCell id="RX2-6TDwEE-yMCxkauu0-1" value="Make an&lt;br&gt;order" style="edgeLabel;html=1;align=center;verticalAlign=middle;resizable=0;points=[];" vertex="1" connectable="0" parent="hcBMqLpVQxvQc22_RVxL-20">
          <mxGeometry x="-0.5436" y="-2" relative="1" as="geometry">
            <mxPoint as="offset" />
          </mxGeometry>
        </mxCell>
        <mxCell id="hcBMqLpVQxvQc22_RVxL-21" value="Deliver Food" style="ellipse;whiteSpace=wrap;html=1;" parent="1" vertex="1">
          <mxGeometry x="260" y="515" width="120" height="80" as="geometry" />
        </mxCell>
        <mxCell id="hcBMqLpVQxvQc22_RVxL-22" value="Use Bonuses" style="ellipse;whiteSpace=wrap;html=1;" parent="1" vertex="1">
          <mxGeometry x="480" y="60" width="120" height="80" as="geometry" />
        </mxCell>
        <mxCell id="hcBMqLpVQxvQc22_RVxL-23" value="" style="endArrow=classic;html=1;rounded=0;entryX=1;entryY=0.5;entryDx=0;entryDy=0;exitX=0;exitY=0.5;exitDx=0;exitDy=0;dashed=1;" parent="1" source="hcBMqLpVQxvQc22_RVxL-22" target="hcBMqLpVQxvQc22_RVxL-12" edge="1">
          <mxGeometry width="50" height="50" relative="1" as="geometry">
            <mxPoint x="420" y="370" as="sourcePoint" />
            <mxPoint x="470" y="320" as="targetPoint" />
          </mxGeometry>
        </mxCell>
        <mxCell id="hcBMqLpVQxvQc22_RVxL-25" value="&amp;lt;&amp;lt;extended&amp;gt;&amp;gt;" style="text;html=1;align=center;verticalAlign=middle;whiteSpace=wrap;rounded=0;" parent="1" vertex="1">
          <mxGeometry x="387" y="68" width="90" height="30" as="geometry" />
        </mxCell>
        <mxCell id="hcBMqLpVQxvQc22_RVxL-26" value="" style="endArrow=none;html=1;rounded=0;exitX=0.5;exitY=0.5;exitDx=0;exitDy=0;exitPerimeter=0;entryX=0;entryY=0.5;entryDx=0;entryDy=0;" parent="1" source="hcBMqLpVQxvQc22_RVxL-7" target="hcBMqLpVQxvQc22_RVxL-21" edge="1">
          <mxGeometry width="50" height="50" relative="1" as="geometry">
            <mxPoint x="420" y="370" as="sourcePoint" />
            <mxPoint x="470" y="320" as="targetPoint" />
          </mxGeometry>
        </mxCell>
        <mxCell id="hcBMqLpVQxvQc22_RVxL-27" value="Pay for Food" style="ellipse;whiteSpace=wrap;html=1;" parent="1" vertex="1">
          <mxGeometry x="260" y="300" width="120" height="80" as="geometry" />
        </mxCell>
        <mxCell id="hcBMqLpVQxvQc22_RVxL-28" value="" style="endArrow=none;html=1;rounded=0;entryX=0.5;entryY=0.5;entryDx=0;entryDy=0;entryPerimeter=0;" parent="1" source="hcBMqLpVQxvQc22_RVxL-27" target="hcBMqLpVQxvQc22_RVxL-6" edge="1">
          <mxGeometry width="50" height="50" relative="1" as="geometry">
            <mxPoint x="420" y="370" as="sourcePoint" />
            <mxPoint x="470" y="320" as="targetPoint" />
          </mxGeometry>
        </mxCell>
        <mxCell id="hcBMqLpVQxvQc22_RVxL-29" value="Facilitate Payment" style="edgeLabel;html=1;align=center;verticalAlign=middle;resizable=0;points=[];" parent="hcBMqLpVQxvQc22_RVxL-28" vertex="1" connectable="0">
          <mxGeometry x="-0.6232" y="1" relative="1" as="geometry">
            <mxPoint as="offset" />
          </mxGeometry>
        </mxCell>
        <mxCell id="hcBMqLpVQxvQc22_RVxL-30" value="" style="endArrow=none;html=1;rounded=0;exitX=0.5;exitY=0.5;exitDx=0;exitDy=0;exitPerimeter=0;" parent="1" source="hcBMqLpVQxvQc22_RVxL-7" target="hcBMqLpVQxvQc22_RVxL-27" edge="1">
          <mxGeometry width="50" height="50" relative="1" as="geometry">
            <mxPoint x="420" y="370" as="sourcePoint" />
            <mxPoint x="470" y="320" as="targetPoint" />
          </mxGeometry>
        </mxCell>
        <mxCell id="hcBMqLpVQxvQc22_RVxL-31" value="Take the Payment" style="edgeLabel;html=1;align=center;verticalAlign=middle;resizable=0;points=[];" parent="hcBMqLpVQxvQc22_RVxL-30" vertex="1" connectable="0">
          <mxGeometry x="0.281" y="3" relative="1" as="geometry">
            <mxPoint y="1" as="offset" />
          </mxGeometry>
        </mxCell>
      </root>
    </mxGraphModel>
  </diagram>
</mxfile>
